<?xml version="1.0" encoding="utf-8"?>
<!-- Generator: Adobe Illustrator 26.1.0, SVG Export Plug-In . SVG Version: 6.00 Build 0)  -->
<svg version="1.1" id="Layer_1" xmlns="http://www.w3.org/2000/svg" xmlns:xlink="http://www.w3.org/1999/xlink" x="0px" y="0px"
	 viewBox="0 0 424 424" style="enable-background:new 0 0 424 424;" xml:space="preserve">
<style type="text/css">
	.st0{fill:#D1D0D1;}
	.st1{fill-rule:evenodd;clip-rule:evenodd;fill:#7F7F80;}
</style>
<path class="st0" d="M212,424L212,424C94.9,424,0,329.1,0,212v0C0,94.9,94.9,0,212,0h0c117.1,0,212,94.9,212,212v0
	C424,329.1,329.1,424,212,424z"/>
<path class="st1" d="M85.4,362.6C95.7,301,150,254.8,212.6,254.8S329.5,301,339.9,362.6C266.4,424.8,158.8,424.8,85.4,362.6
	L85.4,362.6z M141,164.6c0-39.6,32.1-71.6,71.6-71.6s71.6,32.1,71.6,71.6s-32.1,71.6-71.6,71.6c0,0,0,0,0,0
	C173.1,236.2,141.1,204.2,141,164.6L141,164.6z"/>
</svg>
