<svg width="979" height="114" viewBox="0 0 979 114" fill="none" xmlns="http://www.w3.org/2000/svg">
<g opacity="0.8" filter="url(#filter0_i_13_142)">
<path fill-rule="evenodd" clip-rule="evenodd" d="M57.0003 -0.000114H922C953.48 -0.000114 979 25.5197 979 57C979 88.4801 953.48 114 922 114H57.0003C25.5196 114 0 88.4801 0 57C0 25.5197 25.5196 -0.000114 57.0003 -0.000114Z" fill="url(#paint0_linear_13_142)"/>
<path fill-rule="evenodd" clip-rule="evenodd" d="M57.0003 -0.000114H922C953.48 -0.000114 979 25.5197 979 57C979 88.4801 953.48 114 922 114H57.0003C25.5196 114 0 88.4801 0 57C0 25.5197 25.5196 -0.000114 57.0003 -0.000114Z" stroke="black" stroke-opacity="0.9"/>
</g>
<defs>
<filter id="filter0_i_13_142" x="0" y="-0.00012207" width="979" height="118" filterUnits="userSpaceOnUse" color-interpolation-filters="sRGB">
<feFlood flood-opacity="0" result="BackgroundImageFix"/>
<feBlend mode="normal" in="SourceGraphic" in2="BackgroundImageFix" result="shape"/>
<feColorMatrix in="SourceAlpha" type="matrix" values="0 0 0 0 0 0 0 0 0 0 0 0 0 0 0 0 0 0 127 0" result="hardAlpha"/>
<feOffset dy="4"/>
<feGaussianBlur stdDeviation="2"/>
<feComposite in2="hardAlpha" operator="arithmetic" k2="-1" k3="1"/>
<feColorMatrix type="matrix" values="0 0 0 0 1 0 0 0 0 1 0 0 0 0 1 0 0 0 0.25 0"/>
<feBlend mode="normal" in2="shape" result="effect1_innerShadow_13_142"/>
</filter>
<linearGradient id="paint0_linear_13_142" x1="489.5" y1="0" x2="489.5" y2="114" gradientUnits="userSpaceOnUse">
<stop stop-color="#2C3757"/>
<stop offset="1" stop-color="#1E2336"/>
</linearGradient>
</defs>
</svg>
