<svg width="981" height="116" viewBox="0 0 981 116" fill="none" xmlns="http://www.w3.org/2000/svg">
<g opacity="0.8">
<g filter="url(#filter0_i_13_170)">
<path fill-rule="evenodd" clip-rule="evenodd" d="M58.0003 0.999886H923C954.48 0.999886 980 26.5197 980 58C980 89.4801 954.48 115 923 115H58.0003C26.5196 115 1 89.4801 1 58C1 26.5197 26.5196 0.999886 58.0003 0.999886Z" fill="#A2D3E7" fill-opacity="0.01"/>
<path fill-rule="evenodd" clip-rule="evenodd" d="M58.0003 0.999886H923C954.48 0.999886 980 26.5197 980 58C980 89.4801 954.48 115 923 115H58.0003C26.5196 115 1 89.4801 1 58C1 26.5197 26.5196 0.999886 58.0003 0.999886Z" fill="url(#paint0_linear_13_170)" style="mix-blend-mode:soft-light"/>
</g>
<path fill-rule="evenodd" clip-rule="evenodd" d="M58.0003 0.999886H923C954.48 0.999886 980 26.5197 980 58C980 89.4801 954.48 115 923 115H58.0003C26.5196 115 1 89.4801 1 58C1 26.5197 26.5196 0.999886 58.0003 0.999886Z" stroke="url(#paint1_linear_13_170)" stroke-opacity="0.7" stroke-width="2"/>
</g>
<defs>
<filter id="filter0_i_13_170" x="0" y="-0.00012207" width="981" height="116" filterUnits="userSpaceOnUse" color-interpolation-filters="sRGB">
<feFlood flood-opacity="0" result="BackgroundImageFix"/>
<feBlend mode="normal" in="SourceGraphic" in2="BackgroundImageFix" result="shape"/>
<feColorMatrix in="SourceAlpha" type="matrix" values="0 0 0 0 0 0 0 0 0 0 0 0 0 0 0 0 0 0 127 0" result="hardAlpha"/>
<feOffset dy="1"/>
<feComposite in2="hardAlpha" operator="arithmetic" k2="-1" k3="1"/>
<feColorMatrix type="matrix" values="0 0 0 0 0.995833 0 0 0 0 0.998 0 0 0 0 1 0 0 0 0.9 0"/>
<feBlend mode="normal" in2="shape" result="effect1_innerShadow_13_170"/>
</filter>
<linearGradient id="paint0_linear_13_170" x1="978.01" y1="115.232" x2="978.064" y2="1.2299" gradientUnits="userSpaceOnUse">
<stop stop-opacity="0.35"/>
<stop offset="1" stop-color="white" stop-opacity="0.35"/>
</linearGradient>
<linearGradient id="paint1_linear_13_170" x1="980" y1="58" x2="-11" y2="57.9999" gradientUnits="userSpaceOnUse">
<stop/>
<stop offset="0.209104" stop-color="white" stop-opacity="0.58"/>
<stop offset="0.828125" stop-color="white"/>
<stop offset="1"/>
</linearGradient>
</defs>
</svg>
