<svg id="Layer_1" height="512" viewBox="0 0 32 32" width="512" xmlns="http://www.w3.org/2000/svg"><g id="system_update"><g fill="rgb(0,0,0)"><path d="m27.715 28.501c-.131 0-.259-.051-.354-.146l-1.571-1.572c-.195-.195-.195-.512 0-.707s.512-.195.707 0l.947.947 1.154-4.621-4.621 1.155.947.948c.195.195.195.512 0 .707s-.512.195-.707 0l-1.571-1.572c-.128-.127-.177-.313-.128-.487.048-.173.186-.308.36-.351l6.286-1.571c.172-.044.352.008.475.131.124.124.174.304.132.475l-1.571 6.285c-.044.175-.179.313-.352.361-.043.012-.088.018-.133.018z"/><path d="m16 29c-.276 0-.5-.224-.5-.5s.224-.5.5-.5c3.122 0 6.08-1.193 8.327-3.359.198-.191.515-.186.707.013.191.199.186.516-.014.707-2.434 2.347-5.637 3.639-9.02 3.639z"/><path d="m16 31c-8.271 0-15-6.729-15-15 0-.348.012-.692.035-1.034.02-.276.258-.482.533-.465.275.019.483.257.465.533-.021.319-.033.641-.033.966 0 7.72 6.28 14 14 14 3.612 0 7.041-1.372 9.655-3.862.2-.19.516-.184.707.017.19.2.183.516-.018.707-2.8 2.668-6.474 4.138-10.344 4.138z"/></g><g id="transfer_11_"><g fill="rgb(0,0,0)"><path d="m2.714 10.785c-.131 0-.259-.052-.354-.146-.124-.124-.174-.304-.132-.475l1.572-6.286c.044-.175.179-.313.352-.361.173-.047.36 0 .487.128l1.571 1.573c.195.195.195.512 0 .707s-.512.195-.707 0l-.947-.947-1.155 4.62 4.621-1.155-.947-.948c-.195-.195-.195-.512 0-.707s.512-.195.707 0l1.572 1.572c.127.128.176.314.127.488-.048.173-.186.308-.36.351l-6.286 1.571c-.04.01-.081.015-.121.015z"/><path d="m7.326 7.499c-.131 0-.262-.051-.36-.153-.192-.199-.186-.515.013-.707 2.435-2.347 5.638-3.639 9.021-3.639.276 0 .5.224.5.5s-.224.5-.5.5c-3.122 0-6.08 1.193-8.327 3.359-.097.094-.222.14-.347.14z"/><path d="m30.467 17.498c-.012 0-.023 0-.035-.001-.275-.019-.483-.257-.465-.533.021-.319.033-.64.033-.964 0-7.72-6.28-14-14-14-3.612 0-7.041 1.372-9.655 3.862-.2.19-.516.184-.707-.017-.19-.2-.183-.516.018-.707 2.8-2.668 6.474-4.138 10.344-4.138 8.271 0 15 6.729 15 15 0 .347-.012.691-.035 1.032-.019.263-.238.466-.498.466z"/></g></g><g><g><g><g><path d="m16 23c-3.859 0-7-3.14-7-7s3.141-7 7-7c1.353 0 2.663.386 3.792 1.115.231.15.298.459.148.691-.15.233-.461.298-.691.148-.967-.624-2.09-.954-3.249-.954-3.309 0-6 2.691-6 6s2.691 6 6 6 6-2.691 6-6c0-.642-.101-1.273-.299-1.877-.087-.262.056-.545.318-.631.261-.086.546.057.631.319.233.705.35 1.441.35 2.189 0 3.86-3.141 7-7 7z" fill="rgb(0,0,0)"/></g></g></g><g><g><g><path d="m15.5 18.699c-.004 0-.008 0-.012 0-.145-.004-.28-.069-.373-.18l-2.5-3c-.176-.213-.147-.528.064-.705.213-.176.527-.147.705.064l2.133 2.561 6.215-6.865c.188-.204.504-.216.706-.031.203.187.217.503.03.707l-6.6 7.287c-.095.104-.227.162-.368.162z" fill="rgb(0,0,0)"/></g></g></g></g><g id="transaction_history_x2C__clock_1_"><g id="chargeback_claim_x2C__chargeback_x2C__money_2_"><g><circle cx="14" cy="28.5" fill="rgb(0,0,0)" r=".5"/></g></g></g><g id="transaction_history_x2C__clock"><g id="chargeback_claim_x2C__chargeback_x2C__money_1_"><g><circle cx="18" cy="3.5" fill="rgb(0,0,0)" r=".5"/></g></g></g></g></svg>